<svg width="22" height="19" viewBox="0 0 22 19" fill="none" xmlns="http://www.w3.org/2000/svg">
<path d="M6.125 0.75C3.02225 0.75 0.5 3.3015 0.5 6.375C0.5 7.4475 0.986 8.376 1.4375 9.04725C1.70348 9.44479 2.00986 9.81375 2.35175 10.1483L10.46 18.2812L10.9992 18.8205L11.5385 18.2812L19.6475 10.1483C19.6475 10.1483 21.5 8.51625 21.5 6.375C21.5 3.3015 18.9778 0.75 15.875 0.75C13.2995 0.75 11.6412 2.2995 11 2.9535C10.3588 2.2995 8.7005 0.75 6.125 0.75ZM6.125 2.25C8.366 2.25 10.4375 4.4295 10.4375 4.4295L11 5.0625L11.5625 4.4295C11.5625 4.4295 13.634 2.25 15.875 2.25C18.1572 2.25 20 4.122 20 6.375C20 7.53225 18.5938 9.09375 18.5938 9.09375L11 16.6875L3.40625 9.09375C3.40625 9.09375 3.04325 8.745 2.6795 8.20275C2.3165 7.662 2 6.9555 2 6.375C2 4.122 3.84275 2.25 6.125 2.25Z" fill="#637381"/>
</svg>
