<svg width="18" height="16" viewBox="0 0 18 16" fill="none" xmlns="http://www.w3.org/2000/svg">
<path d="M0.75 0.24997C0.3375 0.24997 0 0.58747 0 0.99997C0 1.41247 0.3375 1.74997 0.75 1.74997H2.41425L4.383 9.62497C4.5495 10.2925 5.148 10.75 5.83575 10.75H14.4375C15.114 10.75 15.6885 10.3015 15.867 9.64822L17.8125 2.49997H5.25L5.625 3.99997H15.867L14.4375 9.24997H5.83575L3.867 1.37497C3.78589 1.05195 3.5987 0.765507 3.33543 0.561527C3.07216 0.357546 2.74804 0.247835 2.415 0.24997H0.75ZM13.5 10.75C12.2662 10.75 11.25 11.7662 11.25 13C11.25 14.2337 12.2662 15.25 13.5 15.25C14.7338 15.25 15.75 14.2337 15.75 13C15.75 11.7662 14.7338 10.75 13.5 10.75ZM6.75 10.75C5.51625 10.75 4.5 11.7662 4.5 13C4.5 14.2337 5.51625 15.25 6.75 15.25C7.98375 15.25 9 14.2337 9 13C9 11.7662 7.98375 10.75 6.75 10.75ZM6.75 12.25C7.17225 12.25 7.5 12.5785 7.5 13C7.5 13.4222 7.1715 13.75 6.75 13.75C6.32775 13.75 6 13.4215 6 13C6 12.5777 6.3285 12.25 6.75 12.25ZM13.5 12.25C13.9222 12.25 14.25 12.5785 14.25 13C14.25 13.4222 13.9215 13.75 13.5 13.75C13.0778 13.75 12.75 13.4215 12.75 13C12.75 12.5777 13.0785 12.25 13.5 12.25Z" fill="#76BC21"/>
</svg>
